<?xml version="1.0" encoding="iso-8859-1"?>
<!-- Generator: Adobe Illustrator 19.0.0, SVG Export Plug-In . SVG Version: 6.00 Build 0)  -->
<svg version="1.1" id="Capa_1" xmlns="http://www.w3.org/2000/svg" xmlns:xlink="http://www.w3.org/1999/xlink" x="0px" y="0px" fill="#fff"
	 viewBox="0 0 512 512" style="enable-background:new 0 0 512 512;" xml:space="preserve">
<g>
	<g>
		<g>
			<path d="M437.333,106.667h64c5.896,0,10.667-4.771,10.667-10.667s-4.771-10.667-10.667-10.667h-64
				c-5.896,0-10.667,4.771-10.667,10.667S431.438,106.667,437.333,106.667z"/>
			<path d="M250.107,341.695c16.979-20.355,27.227-46.512,27.227-75.029c0-28.517-10.247-54.673-27.227-75.029l23.039-23.023
				c4.167-4.156,4.167-10.917,0-15.083c-4.167-4.167-10.917-4.167-15.083,0l-23.04,23.025
				c-17.786-14.833-40.008-24.474-64.355-26.682v-32.54c0-5.896-4.771-10.667-10.667-10.667s-10.667,4.771-10.667,10.667v32.54
				c-24.348,2.208-46.569,11.849-64.355,26.682l-23.04-23.025c-4.167-4.167-10.917-4.167-15.083,0
				c-4.167,4.167-4.167,10.927,0,15.083l23.039,23.023C55.057,209.423,45.415,231.648,43.207,256h-32.54
				C4.771,256,0,260.771,0,266.667c0,5.896,4.771,10.667,10.667,10.667h32.54c2.208,24.352,11.85,46.577,26.686,64.362
				l-23.039,23.023c-4.167,4.156-4.167,10.917,0,15.083c2.083,2.083,4.813,3.125,7.542,3.125c2.729,0,5.458-1.042,7.542-3.125
				l23.04-23.025c17.786,14.833,40.008,24.474,64.355,26.682V416c0,5.896,4.771,10.667,10.667,10.667s10.667-4.771,10.667-10.667
				v-32.54c24.348-2.208,46.569-11.849,64.355-26.682l23.04,23.025c2.083,2.083,4.813,3.125,7.542,3.125
				c2.729,0,5.458-1.042,7.542-3.125c4.167-4.167,4.167-10.927,0-15.083L250.107,341.695z"/>
			<path d="M405.333,53.333C405.333,23.927,381.417,0,352,0s-53.333,23.927-53.333,53.333v332.073
				c-13.604,13.958-21.333,32.625-21.333,51.927C277.333,478.5,310.833,512,352,512s74.667-33.5,74.667-74.667
				c0-19.302-7.729-37.969-21.333-51.927V53.333z M352,469.333c-17.646,0-32-14.354-32-32c0-13.888,8.944-25.617,21.333-30.035V224
				c0-5.896,4.771-10.667,10.667-10.667c5.896,0,10.667,4.771,10.667,10.667v183.298C375.056,411.716,384,423.445,384,437.333
				C384,454.979,369.646,469.333,352,469.333z"/>
			<path d="M501.333,341.333h-64c-5.896,0-10.667,4.771-10.667,10.667c0,5.896,4.771,10.667,10.667,10.667h64
				c5.896,0,10.667-4.771,10.667-10.667C512,346.104,507.229,341.333,501.333,341.333z"/>
			<path d="M437.333,320h21.333c5.896,0,10.667-4.771,10.667-10.667c0-5.896-4.771-10.667-10.667-10.667h-21.333
				c-5.896,0-10.667,4.771-10.667,10.667C426.667,315.229,431.438,320,437.333,320z"/>
			<path d="M437.333,277.333h21.333c5.896,0,10.667-4.771,10.667-10.667c0-5.896-4.771-10.667-10.667-10.667h-21.333
				c-5.896,0-10.667,4.771-10.667,10.667C426.667,272.563,431.438,277.333,437.333,277.333z"/>
			<path d="M501.333,213.333h-64c-5.896,0-10.667,4.771-10.667,10.667s4.771,10.667,10.667,10.667h64
				c5.896,0,10.667-4.771,10.667-10.667S507.229,213.333,501.333,213.333z"/>
			<path d="M437.333,192h21.333c5.896,0,10.667-4.771,10.667-10.667c0-5.896-4.771-10.667-10.667-10.667h-21.333
				c-5.896,0-10.667,4.771-10.667,10.667C426.667,187.229,431.438,192,437.333,192z"/>
			<path d="M437.333,149.333h21.333c5.896,0,10.667-4.771,10.667-10.667c0-5.896-4.771-10.667-10.667-10.667h-21.333
				c-5.896,0-10.667,4.771-10.667,10.667C426.667,144.563,431.438,149.333,437.333,149.333z"/>
		</g>
	</g>
</g>
<g>
</g>
<g>
</g>
<g>
</g>
<g>
</g>
<g>
</g>
<g>
</g>
<g>
</g>
<g>
</g>
<g>
</g>
<g>
</g>
<g>
</g>
<g>
</g>
<g>
</g>
<g>
</g>
<g>
</g>
</svg>
