<?xml version="1.0" encoding="iso-8859-1"?>
<!-- Generator: Adobe Illustrator 19.0.0, SVG Export Plug-In . SVG Version: 6.00 Build 0)  -->
<svg version="1.1" id="Capa_1" xmlns="http://www.w3.org/2000/svg" xmlns:xlink="http://www.w3.org/1999/xlink" x="0px" y="0px" fill="#fff"
	 viewBox="0 0 512 512" style="enable-background:new 0 0 512 512;" xml:space="preserve">
<g>
	<g>
		<g>
			<path d="M437.333,106.667h64c5.896,0,10.667-4.771,10.667-10.667s-4.771-10.667-10.667-10.667h-64
				c-5.896,0-10.667,4.771-10.667,10.667S431.438,106.667,437.333,106.667z"/>
			<path d="M263.354,288.521c-4.083,1.333-7.875,2.865-11.583,4.365c-8,3.229-14.313,5.781-22.438,5.781
				c-67.646,0-122.667-55.031-122.667-122.667c0-8.125,2.688-14.771,5.792-22.458c1.5-3.698,3.021-7.49,4.354-11.563
				c1.25-3.823,0.229-8.021-2.604-10.854c-2.854-2.833-7.021-3.823-10.854-2.594C41.542,148.698,0,202.073,0,261.333
				c0,79.406,64.604,144,144,144c59.25,0,112.625-41.531,132.813-103.354c1.25-3.823,0.229-8.01-2.604-10.854
				C271.375,288.281,267.167,287.281,263.354,288.521z"/>
			<path d="M181.333,192c15.458,0,18.979,2.073,24.458,7.552c5.479,5.458,7.542,8.979,7.542,24.448
				c0,5.896,4.771,10.667,10.667,10.667s10.667-4.771,10.667-10.667c0-15.469,2.063-18.99,7.542-24.448
				c5.479-5.479,9-7.552,24.458-7.552c5.896,0,10.667-4.771,10.667-10.667c0-5.896-4.771-10.667-10.667-10.667
				c-15.458,0-18.979-2.073-24.458-7.552c-5.479-5.458-7.542-8.979-7.542-24.448c0-5.896-4.771-10.667-10.667-10.667
				s-10.667,4.771-10.667,10.667c0,15.469-2.063,18.99-7.542,24.448c-5.479,5.479-9,7.552-24.458,7.552
				c-5.896,0-10.667,4.771-10.667,10.667C170.667,187.229,175.438,192,181.333,192z"/>
			<path d="M405.333,53.333C405.333,23.927,381.417,0,352,0s-53.333,23.927-53.333,53.333v332.073
				c-13.604,13.958-21.333,32.625-21.333,51.927C277.333,478.5,310.833,512,352,512s74.667-33.5,74.667-74.667
				c0-19.302-7.729-37.969-21.333-51.927V53.333z M352,469.333c-17.646,0-32-14.354-32-32c0-13.888,8.944-25.617,21.333-30.035V224
				c0-5.896,4.771-10.667,10.667-10.667c5.896,0,10.667,4.771,10.667,10.667v183.298C375.056,411.716,384,423.445,384,437.333
				C384,454.979,369.646,469.333,352,469.333z"/>
			<path d="M501.333,341.333h-64c-5.896,0-10.667,4.771-10.667,10.667c0,5.896,4.771,10.667,10.667,10.667h64
				c5.896,0,10.667-4.771,10.667-10.667C512,346.104,507.229,341.333,501.333,341.333z"/>
			<path d="M437.333,320h21.333c5.896,0,10.667-4.771,10.667-10.667c0-5.896-4.771-10.667-10.667-10.667h-21.333
				c-5.896,0-10.667,4.771-10.667,10.667C426.667,315.229,431.438,320,437.333,320z"/>
			<path d="M437.333,277.333h21.333c5.896,0,10.667-4.771,10.667-10.667c0-5.896-4.771-10.667-10.667-10.667h-21.333
				c-5.896,0-10.667,4.771-10.667,10.667C426.667,272.563,431.438,277.333,437.333,277.333z"/>
			<path d="M501.333,213.333h-64c-5.896,0-10.667,4.771-10.667,10.667s4.771,10.667,10.667,10.667h64
				c5.896,0,10.667-4.771,10.667-10.667S507.229,213.333,501.333,213.333z"/>
			<path d="M437.333,192h21.333c5.896,0,10.667-4.771,10.667-10.667c0-5.896-4.771-10.667-10.667-10.667h-21.333
				c-5.896,0-10.667,4.771-10.667,10.667C426.667,187.229,431.438,192,437.333,192z"/>
			<path d="M437.333,149.333h21.333c5.896,0,10.667-4.771,10.667-10.667c0-5.896-4.771-10.667-10.667-10.667h-21.333
				c-5.896,0-10.667,4.771-10.667,10.667C426.667,144.563,431.438,149.333,437.333,149.333z"/>
		</g>
	</g>
</g>
<g>
</g>
<g>
</g>
<g>
</g>
<g>
</g>
<g>
</g>
<g>
</g>
<g>
</g>
<g>
</g>
<g>
</g>
<g>
</g>
<g>
</g>
<g>
</g>
<g>
</g>
<g>
</g>
<g>
</g>
</svg>
